<svg width="64" height="72" viewBox="0 0 64 72" fill="none" xmlns="http://www.w3.org/2000/svg">
<path d="M63.8012 18.271V43.694C63.8012 53.7844 55.384 61.9651 45.0019 61.9651H43.1004L33.3901 71.3963C33.0098 71.7659 32.4837 72 31.9006 72C31.3619 72 30.8738 71.809 30.4999 71.4887L30.3351 71.3285L30.3287 71.3224L20.7009 61.9651H18.793C8.41725 61.9651 0 53.7844 0 43.694V18.271C0 8.1807 8.41725 0 18.7994 0H45.0019C55.384 0 63.8012 8.1807 63.8012 18.271Z" fill="#3EE08F"/>
<path d="M14.2254 35.219C12.3746 35.219 11.3197 37.2687 12.3936 38.7487C16.5689 44.5139 23.4731 48.2728 31.2743 48.2728C39.0755 48.2728 45.9734 44.5077 50.1487 38.7487C51.2226 37.2687 50.1677 35.219 48.3169 35.219H14.2254Z" fill="white"/>
<path d="M25.0655 26.4937H13.8975V21.0196C13.8975 17.9976 16.3989 15.5454 19.4815 15.5454C22.564 15.5454 25.0655 17.9976 25.0655 21.0196V26.4937Z" fill="white"/>
<path d="M48.6516 26.4937H37.4836V21.0196C37.4836 17.9976 39.9851 15.5454 43.0676 15.5454C46.1502 15.5454 48.6516 17.9976 48.6516 21.0196V26.4937Z" fill="white"/>
</svg>
