<svg width="68" height="72" viewBox="0 0 68 72" fill="none" xmlns="http://www.w3.org/2000/svg">
<path d="M67.2193 18.271V43.694C67.2193 53.7844 58.3511 61.9651 47.4128 61.9651H45.4094L35.179 71.3963C34.7783 71.7659 34.224 72 33.6097 72C33.042 72 32.5278 71.809 32.1338 71.4887L31.9602 71.3285L31.9535 71.3224L21.8099 61.9651H19.7998C8.86819 61.9651 0 53.7844 0 43.694V18.271C0 8.1807 8.8682 0 19.8065 0H47.4128C58.3511 0 67.2193 8.1807 67.2193 18.271Z" fill="#F30072"/>
<path d="M14.9875 35.219C13.0376 35.219 11.9261 37.2687 13.0575 38.7487C17.4566 44.5139 24.7307 48.2728 32.9498 48.2728C41.1689 48.2728 48.4363 44.5077 52.8354 38.7487C53.9667 37.2687 52.8553 35.219 50.9054 35.219H14.9875Z" fill="white"/>
<path d="M26.4082 26.4937H14.6418V21.0196C14.6418 17.9976 17.2773 15.5454 20.525 15.5454C23.7727 15.5454 26.4082 17.9976 26.4082 21.0196V26.4937Z" fill="white"/>
<path d="M51.2583 26.4937H39.4919V21.0196C39.4919 17.9976 42.1274 15.5454 45.3751 15.5454C48.6228 15.5454 51.2583 17.9976 51.2583 21.0196V26.4937Z" fill="white"/>
</svg>
